<?xml version="1.0" standalone="no"?>
<!DOCTYPE svg PUBLIC "-//W3C//DTD SVG 20010904//EN"
 "http://www.w3.org/TR/2001/REC-SVG-20010904/DTD/svg10.dtd">
<svg version="1.0" xmlns="http://www.w3.org/2000/svg"
 width="512.000000pt" height="512.000000pt" viewBox="0 0 512.000000 512.000000"
 preserveAspectRatio="xMidYMid meet">

<g transform="translate(0.000000,512.000000) scale(0.100000,-0.100000)"
fill="#fcd015" stroke="none">
<path d="M900 5113 c-259 -43 -478 -206 -590 -436 -71 -148 -73 -163 -77 -619
l-4 -406 -30 -13 c-48 -19 -118 -95 -147 -157 -22 -46 -26 -72 -27 -137 0
-102 31 -171 110 -243 61 -56 118 -79 216 -88 l66 -7 7 -83 c25 -333 275 -630
606 -721 101 -27 320 -25 423 5 334 96 567 380 602 733 l7 66 71 7 c126 12
226 74 282 178 24 44 30 68 33 140 4 77 2 92 -22 145 -29 61 -80 121 -133 154
l-32 20 -3 497 -3 497 -24 60 c-34 84 -134 183 -216 215 -115 44 -261 27 -354
-41 -23 -16 -44 -29 -47 -29 -3 0 -37 28 -74 63 -113 104 -230 162 -388 193
-69 13 -195 17 -252 7z m899 -815 c31 -50 70 -136 87 -193 16 -53 18 -118 21
-585 3 -362 1 -550 -7 -604 -22 -155 -82 -275 -190 -385 -120 -123 -267 -189
-440 -198 -197 -10 -357 52 -501 196 -70 70 -94 102 -127 171 -70 146 -72 170
-72 763 l0 525 28 53 c34 66 106 114 185 124 63 9 84 19 92 45 8 26 15 25 85
-7 53 -25 59 -31 62 -62 4 -48 38 -69 132 -82 141 -19 305 16 432 92 31 19 86
64 123 101 36 37 68 67 71 68 3 0 12 -10 19 -22z m-1379 -949 l0 -181 -69 4
c-56 3 -75 9 -105 31 -145 111 -59 325 132 327 l42 0 0 -181z m1745 170 c86
-24 135 -89 135 -176 -1 -102 -75 -173 -182 -173 l-58 0 0 180 0 180 33 0 c17
0 50 -5 72 -11z"/>
<path d="M1013 3730 c-35 -14 -43 -42 -43 -149 0 -88 3 -104 20 -121 30 -30
83 -27 109 6 18 23 21 41 21 120 0 109 -3 120 -41 139 -32 17 -35 17 -66 5z"/>
<path d="M1403 3730 c-35 -14 -43 -42 -43 -149 0 -117 13 -141 74 -141 58 0
76 34 76 141 0 98 -11 131 -47 148 -28 13 -30 13 -60 1z"/>
<path d="M916 3189 c-39 -30 -36 -81 7 -121 172 -161 452 -164 623 -6 52 48
58 85 19 123 -32 33 -67 31 -107 -4 -120 -105 -300 -113 -413 -19 -63 53 -89
58 -129 27z"/>
<path d="M3132 4940 c-69 -35 -125 -92 -156 -159 -16 -35 -21 -66 -21 -131 0
-73 4 -93 28 -142 52 -106 134 -159 281 -183 52 -9 124 -24 160 -35 l65 -20
-26 -51 c-43 -86 -30 -202 30 -268 33 -37 598 -486 635 -505 110 -57 267 -5
321 106 22 47 131 730 131 823 -1 84 -55 171 -132 211 -49 25 -128 29 -192 9
l-56 -18 -67 55 c-253 204 -591 338 -855 338 -74 0 -92 -4 -146 -30z m274
-135 c241 -42 482 -160 673 -329 41 -37 83 -66 95 -66 12 0 54 12 94 27 71 25
74 26 108 10 62 -30 62 -30 5 -414 -28 -191 -56 -365 -61 -385 -13 -45 -43
-68 -90 -68 -31 0 -71 29 -325 230 -159 127 -296 238 -302 247 -31 41 -1 123
50 139 38 11 67 45 67 79 0 41 -26 64 -120 110 -93 44 -179 70 -297 89 -105
17 -121 24 -157 66 -57 68 -57 152 1 221 52 61 106 70 259 44z"/>
<path d="M3259 2661 c-106 -34 -191 -110 -237 -211 -35 -76 -42 -202 -15 -279
l19 -55 -60 -40 c-120 -81 -183 -208 -174 -349 3 -42 14 -92 25 -118 l21 -47
-37 -27 c-87 -66 -131 -155 -131 -266 0 -188 139 -329 324 -329 l63 0 6 -128
c11 -245 91 -429 254 -584 295 -280 755 -303 1070 -52 122 96 150 155 100 202
-39 37 -71 29 -143 -36 -112 -101 -248 -167 -370 -179 -50 -5 -57 -3 -119 37
-100 65 -197 175 -250 284 -80 163 -79 148 -83 707 l-3 497 35 21 c37 23 146
136 146 152 0 20 18 7 55 -43 85 -111 268 -226 435 -274 50 -14 98 -19 213
-19 l149 0 -4 -405 c-4 -341 -7 -414 -21 -463 -9 -32 -17 -69 -17 -82 0 -60
85 -88 128 -42 33 35 53 129 59 273 l6 132 81 4 c62 4 93 11 132 31 117 60
194 200 180 325 -9 82 -57 173 -114 219 -26 20 -48 38 -50 39 -2 1 7 30 18 65
31 90 25 211 -12 291 -32 69 -103 147 -162 178 l-43 23 20 51 c28 73 27 192
-2 269 -31 80 -114 167 -199 209 l-67 33 -585 2 c-541 2 -589 1 -641 -16z"/>
<path d="M784 1606 c-61 -28 -118 -92 -133 -149 -6 -23 -36 -207 -66 -409 -60
-400 -60 -408 -12 -491 29 -50 84 -90 142 -106 55 -15 91 -13 150 7 l50 18 70
-57 c249 -202 575 -331 840 -333 101 -1 114 1 160 26 62 32 130 104 158 166
15 34 21 68 21 122 1 66 -4 85 -32 142 -55 111 -141 168 -287 188 -75 10 -215
46 -215 55 0 2 10 24 23 47 17 34 22 60 22 120 0 69 -3 81 -30 120 -37 53
-588 499 -660 534 -66 31 -133 32 -201 0z m162 -155 c123 -89 561 -446 571
-464 28 -50 4 -105 -58 -132 -51 -23 -72 -63 -57 -107 19 -55 238 -145 413
-169 96 -14 135 -34 173 -89 20 -30 23 -45 20 -96 -5 -78 -37 -124 -103 -150
-40 -15 -55 -16 -133 -5 -280 39 -527 152 -731 335 -84 76 -93 77 -195 42 -54
-19 -74 -22 -97 -14 -35 12 -59 43 -59 78 0 43 101 713 112 743 12 30 50 56
84 57 12 0 39 -13 60 -29z"/>
<path d="M3632 1487 c-20 -21 -22 -34 -22 -129 0 -119 10 -143 66 -154 24 -5
37 0 60 19 27 24 29 31 33 111 1 48 0 98 -3 111 -16 64 -92 87 -134 42z"/>
<path d="M4022 1487 c-20 -21 -22 -34 -22 -129 0 -126 13 -152 74 -152 58 0
78 28 84 117 6 92 -3 142 -29 168 -27 27 -80 25 -107 -4z"/>
<path d="M3550 960 c-13 -13 -20 -33 -20 -57 0 -30 7 -43 42 -75 57 -53 148
-95 236 -110 135 -23 291 24 386 114 52 50 58 80 25 122 -31 40 -77 36 -142
-13 -125 -93 -265 -94 -388 -1 -61 46 -107 52 -139 20z"/>
</g>
</svg>
